<svg id="Layer_1" data-name="Layer 1" xmlns="http://www.w3.org/2000/svg" viewBox="0 0 280 300"><defs><style>.cls-1,.cls-3{fill:#2e3192;}.cls-1{fill-rule:evenodd;}.cls-2{fill:#fff;}</style></defs><title>alcoholicos anonimos logo</title><path class="cls-1" d="M138.9,71.1a78.9,78.9,0,1,1-79,78.9,79,79,0,0,1,79-78.9Z"/><path class="cls-2" d="M67.09,141.67l.12-1.38,6.06.53a7.14,7.14,0,0,1,2.47.57,3.06,3.06,0,0,1,1.4,1.42,4.49,4.49,0,0,1,.37,2.49,5.1,5.1,0,0,1-.72,2.36,2.92,2.92,0,0,1-1.58,1.21,7,7,0,0,1-2.66.16l-6.06-.52.12-1.39,6,.53a5.65,5.65,0,0,0,2-.08,1.93,1.93,0,0,0,1.08-.78,3,3,0,0,0,.48-1.47,2.91,2.91,0,0,0-.5-2.24,4,4,0,0,0-2.61-.88l-6-.53Z"/><polygon class="cls-2" points="78.07 138.95 67.86 136.41 68.21 135.03 77.56 131.68 69.54 129.68 69.87 128.39 80.07 130.93 79.73 132.31 70.37 135.66 78.39 137.66 78.07 138.95 78.07 138.95"/><polygon class="cls-2" points="81.09 128.44 71.34 124.51 71.86 123.22 81.61 127.15 81.09 128.44 81.09 128.44"/><path class="cls-2" d="M82.4,124.93,73.11,120l1.7-3.19a8.51,8.51,0,0,1,1-1.58,3.52,3.52,0,0,1,1.38-1,4.39,4.39,0,0,1,2.17-.25,7.08,7.08,0,0,1,2.41.81A7.18,7.18,0,0,1,83.53,116a4.75,4.75,0,0,1,1,1.35,3.69,3.69,0,0,1,.4,1.29,3.82,3.82,0,0,1-.13,1.35,6.77,6.77,0,0,1-.63,1.57l-1.78,3.34Zm-.45-1.8,1.06-2a5.5,5.5,0,0,0,.59-1.53,2.27,2.27,0,0,0,0-1.08,3.15,3.15,0,0,0-.81-1.31A6.28,6.28,0,0,0,81.09,116a4.86,4.86,0,0,0-2.49-.71,2.74,2.74,0,0,0-1.67.6,5.51,5.51,0,0,0-1,1.49l-1,2L82,123.13Z"/><path class="cls-2" d="M86.78,116.41l-5.63-9.74.94-1.16L93,108.78,92,110,88.72,109,86,112.37l1.75,2.89-.93,1.15Zm-1.45-5.07,2.24-2.76-2.95-1c-.9-.29-1.62-.56-2.16-.79a13.67,13.67,0,0,1,1.2,1.7l1.67,2.83Z"/><path class="cls-2" d="M94.26,107.43l-7.17-7.67,2.64-2.47a8.88,8.88,0,0,1,1.48-1.16,3.48,3.48,0,0,1,1.64-.5,4.37,4.37,0,0,1,2.13.46,7.06,7.06,0,0,1,2,1.55,6.94,6.94,0,0,1,1.24,1.74,4.88,4.88,0,0,1,.52,1.6,3.53,3.53,0,0,1,0,1.35,3.94,3.94,0,0,1-.55,1.24A7.07,7.07,0,0,1,97,104.85l-2.77,2.58Zm.17-1.85,1.64-1.53a5.36,5.36,0,0,0,1.06-1.25,2.31,2.31,0,0,0,.32-1,3.32,3.32,0,0,0-.34-1.5,6.67,6.67,0,0,0-1.18-1.66,4.77,4.77,0,0,0-2.13-1.48,2.66,2.66,0,0,0-1.77,0,5.17,5.17,0,0,0-1.46,1.06L89,99.72l5.48,5.86Z"/><path class="cls-2" d="M172.42,94.07l1.15.66a2.68,2.68,0,0,0-.39,1.3,2.37,2.37,0,0,0,.39,1.28,4.12,4.12,0,0,0,1.15,1.17,3.86,3.86,0,0,0,1.28.62,2,2,0,0,0,1.12,0,1.51,1.51,0,0,0,.76-.57,1.33,1.33,0,0,0,.26-.87,2,2,0,0,0-.42-1.05,18.42,18.42,0,0,0-1.24-1.49,9.78,9.78,0,0,1-1.28-1.7,2.84,2.84,0,0,1-.36-1.44,2.34,2.34,0,0,1,.45-1.28,2.71,2.71,0,0,1,1.22-1,2.8,2.8,0,0,1,1.68-.1,4.78,4.78,0,0,1,1.79.81,5.06,5.06,0,0,1,1.47,1.49,3,3,0,0,1,.5,1.69,3.25,3.25,0,0,1-.53,1.65l-1.15-.68a2.13,2.13,0,0,0,.26-1.65,2.79,2.79,0,0,0-1.21-1.47,2.94,2.94,0,0,0-1.77-.67,1.37,1.37,0,0,0-1.11.58,1.15,1.15,0,0,0-.2,1,5.51,5.51,0,0,0,1.29,1.82,14.24,14.24,0,0,1,1.52,1.88,3.26,3.26,0,0,1,.5,1.65,2.63,2.63,0,0,1-.5,1.47,2.89,2.89,0,0,1-1.31,1,3.24,3.24,0,0,1-1.79.16,4.79,4.79,0,0,1-1.89-.83,5.82,5.82,0,0,1-1.72-1.71,3.31,3.31,0,0,1-.53-1.89,3.58,3.58,0,0,1,.61-1.87Z"/><polygon class="cls-2" points="178.65 102.8 185.82 95.13 191.38 100.3 190.53 101.2 185.99 96.98 183.79 99.33 188.05 103.28 187.21 104.19 182.95 100.23 180.51 102.84 185.23 107.23 184.39 108.14 178.65 102.8 178.65 102.8"/><path class="cls-2" d="M185.66,109.81l8.17-6.6,2.94,3.61a6.16,6.16,0,0,1,1.12,1.84,2.3,2.3,0,0,1,0,1.53,3,3,0,0,1-1,1.34,2.64,2.64,0,0,1-1.92.62A3.71,3.71,0,0,1,192.8,111a3.52,3.52,0,0,1,.13,1,7.73,7.73,0,0,1-.36,1.77L191.49,117l-1.1-1.36.83-2.45c.23-.71.4-1.28.49-1.69a3.21,3.21,0,0,0,.1-1,2.27,2.27,0,0,0-.18-.67,3.94,3.94,0,0,0-.45-.63l-1-1.25-3.63,2.93-.88-1.08Zm5.44-2.61,1.88,2.32a4.38,4.38,0,0,0,1.1,1,1.54,1.54,0,0,0,1,.24,1.68,1.68,0,0,0,.91-.38,1.53,1.53,0,0,0,.61-1.19,2.46,2.46,0,0,0-.7-1.62L193.81,105l-2.71,2.18Z"/><path class="cls-2" d="M193.3,120.61l7.37-8.52.71,1.33-5.46,6c-.44.49-.86.92-1.26,1.3.58-.13,1.18-.23,1.78-.31l8.08-1.08.67,1.26L194,121.86l-.67-1.25Z"/><polygon class="cls-2" points="196.23 127.06 205.98 123.13 206.5 124.42 196.75 128.34 196.23 127.06 196.23 127.06"/><path class="cls-2" d="M203.21,136.69l0,1.43a4.7,4.7,0,0,1-2.95-.79,4.4,4.4,0,0,1-1.63-2.42,5,5,0,0,1-.09-2.84,4.34,4.34,0,0,1,1.48-2.11,7.13,7.13,0,0,1,2.56-1.3,6.16,6.16,0,0,1,2.92-.19,4.35,4.35,0,0,1,2.28,1.2,5.17,5.17,0,0,1,1.31,2.27,4.28,4.28,0,0,1,0,2.77,4.14,4.14,0,0,1-1.76,2.06l-.68-1.23a3.23,3.23,0,0,0,1.31-1.48,2.75,2.75,0,0,0,0-1.82,3.37,3.37,0,0,0-1.11-1.78,3.12,3.12,0,0,0-1.82-.67,6.32,6.32,0,0,0-2,.24,6.61,6.61,0,0,0-2.15,1,2.91,2.91,0,0,0-1.1,1.58,3.33,3.33,0,0,0,0,1.85,3,3,0,0,0,1.19,1.71,3.5,3.5,0,0,0,2.23.5Z"/><polygon class="cls-2" points="199.97 141.03 210.39 139.57 210.58 140.94 200.16 142.4 199.97 141.03 199.97 141.03"/><path class="cls-2" d="M205.64,144.33a5.7,5.7,0,0,1,4.14,1.26,4.76,4.76,0,0,1,1.61,3.57,5,5,0,0,1-.6,2.64,4.53,4.53,0,0,1-1.88,1.85,6.44,6.44,0,0,1-2.8.71,6.29,6.29,0,0,1-2.88-.55,4.45,4.45,0,0,1-2-1.75,5.23,5.23,0,0,1-.73-2.53,4.91,4.91,0,0,1,.62-2.67A4.59,4.59,0,0,1,203,145a6,6,0,0,1,2.6-.7Zm0,1.44a4.19,4.19,0,0,0-3,1.12,3.56,3.56,0,0,0,.19,5.13,4.51,4.51,0,0,0,3.17.91,5.42,5.42,0,0,0,2.22-.51,3.36,3.36,0,0,0,1.44-1.32,3.5,3.5,0,0,0,.47-1.89,3.58,3.58,0,0,0-1.11-2.5,4.53,4.53,0,0,0-3.42-.94Z"/><path class="cls-2" d="M86,201.66l7.45-7.41,3.29,3.29A6.16,6.16,0,0,1,98,199.25a2.35,2.35,0,0,1,.12,1.53,3,3,0,0,1-.82,1.43,2.64,2.64,0,0,1-1.84.81,3.69,3.69,0,0,1-2.27-.89,3.73,3.73,0,0,1,.22,1,7.32,7.32,0,0,1-.18,1.8l-.73,3.31L91.27,207l.57-2.53a15.93,15.93,0,0,0,.31-1.73,2.7,2.7,0,0,0,0-1,2.19,2.19,0,0,0-.24-.65,4.2,4.2,0,0,0-.52-.58l-1.14-1.14L87,202.64l-1-1Zm5.15-3.16,2.11,2.11a4.6,4.6,0,0,0,1.19.92,1.62,1.62,0,0,0,1,.13,1.7,1.7,0,0,0,.86-.47,1.55,1.55,0,0,0,.49-1.24,2.55,2.55,0,0,0-.87-1.55l-2.35-2.35-2.46,2.45Z"/><polygon class="cls-2" points="93.8 208.86 99.99 200.38 106.13 204.84 105.4 205.84 100.38 202.2 98.49 204.79 103.19 208.21 102.46 209.2 97.76 205.79 95.65 208.67 100.87 212.47 100.14 213.47 93.8 208.86 93.8 208.86"/><path class="cls-2" d="M110.13,214.75l1.07,1a4.76,4.76,0,0,1-2.62,1.57,4.35,4.35,0,0,1-2.88-.52,5,5,0,0,1-2.11-1.9,4.36,4.36,0,0,1-.49-2.53,7.08,7.08,0,0,1,.84-2.74,6.1,6.1,0,0,1,1.9-2.23,4.31,4.31,0,0,1,2.45-.8,5.3,5.3,0,0,1,2.55.64,4.35,4.35,0,0,1,2,2,4.17,4.17,0,0,1,.26,2.7l-1.36-.36a3.16,3.16,0,0,0-.15-2,2.78,2.78,0,0,0-1.3-1.28,3.37,3.37,0,0,0-2.06-.44,3,3,0,0,0-1.74.83,6.13,6.13,0,0,0-1.24,1.62,6.37,6.37,0,0,0-.76,2.25,2.93,2.93,0,0,0,.37,1.89,3.41,3.41,0,0,0,1.34,1.27,3,3,0,0,0,2.06.34,3.42,3.42,0,0,0,1.91-1.25Z"/><path class="cls-2" d="M121.43,211.68l1.31.48-2.09,5.69a7.09,7.09,0,0,1-1.2,2.24,3.07,3.07,0,0,1-1.74,1,4.5,4.5,0,0,1-2.51-.29,5.1,5.1,0,0,1-2.09-1.3,2.85,2.85,0,0,1-.75-1.84,6.81,6.81,0,0,1,.52-2.61l2.09-5.69,1.3.47-2.08,5.69a6,6,0,0,0-.45,2,2,2,0,0,0,.48,1.24,3,3,0,0,0,1.3.85,2.9,2.9,0,0,0,2.3.09,4,4,0,0,0,1.52-2.28l2.09-5.69Z"/><path class="cls-2" d="M121.3,222.44l2.2-10.26,3.88.83a9.12,9.12,0,0,1,1.54.43,3.11,3.11,0,0,1,1.17.75,2.54,2.54,0,0,1,.61,1.16,3.39,3.39,0,0,1-1.29,3.51,4.13,4.13,0,0,1-3.21.26l-2.64-.56-.9,4.17-1.36-.29Zm2.52-5.09,2.66.57a2.88,2.88,0,0,0,2-.1,1.73,1.73,0,0,0,.85-1.26,1.84,1.84,0,0,0-.09-1.17,1.56,1.56,0,0,0-.73-.79,6.32,6.32,0,0,0-1.25-.36l-2.63-.56-.78,3.67Z"/><polygon class="cls-2" points="131.06 224.14 131.81 213.67 139.39 214.21 139.3 215.44 133.11 215.01 132.88 218.21 138.68 218.62 138.59 219.85 132.79 219.44 132.54 223 138.98 223.46 138.89 224.69 131.06 224.14 131.06 224.14"/><path class="cls-2" d="M140.76,224.67l-.9-10.46,4.64-.39a6.2,6.2,0,0,1,2.16.09,2.41,2.41,0,0,1,1.25.9,3,3,0,0,1,.57,1.54,2.62,2.62,0,0,1-.56,1.93,3.71,3.71,0,0,1-2.15,1.17,3.4,3.4,0,0,1,.88.44,7.82,7.82,0,0,1,1.28,1.29l2.06,2.69-1.74.15L146.68,222c-.46-.59-.84-1.05-1.13-1.36a3.11,3.11,0,0,0-.76-.63,2.17,2.17,0,0,0-.66-.23,4.36,4.36,0,0,0-.78,0l-1.61.14.41,4.64-1.39.12Zm.88-6,3-.26a4.42,4.42,0,0,0,1.47-.32,1.58,1.58,0,0,0,.76-.7,1.69,1.69,0,0,0,.2-1,1.54,1.54,0,0,0-.65-1.17,2.48,2.48,0,0,0-1.74-.33l-3.32.28.3,3.46Z"/><path class="cls-2" d="M150.29,223.77l1.59-11.12,1.46-.34,6.55,9.27-1.55.35-1.91-2.82-4.28,1-.41,3.35-1.45.33Zm2-4.87,3.48-.8L154,215.52c-.52-.79-.93-1.44-1.22-2a13.23,13.23,0,0,1-.1,2.08l-.44,3.26Z"/><path class="cls-2" d="M167.41,214.84l1.43-.17a4.59,4.59,0,0,1-.54,3,4.32,4.32,0,0,1-2.27,1.83,5,5,0,0,1-2.83.35,4.32,4.32,0,0,1-2.23-1.3,7.08,7.08,0,0,1-1.53-2.43,6.16,6.16,0,0,1-.44-2.89,4.3,4.3,0,0,1,1-2.37,5.23,5.23,0,0,1,2.15-1.5,4.32,4.32,0,0,1,2.77-.19,4.13,4.13,0,0,1,2.21,1.57l-1.17.79a3.22,3.22,0,0,0-1.59-1.18,2.83,2.83,0,0,0-1.82.13,3.4,3.4,0,0,0-1.68,1.27,3,3,0,0,0-.51,1.86,6,6,0,0,0,.41,2,6.47,6.47,0,0,0,1.2,2,2.9,2.9,0,0,0,1.67,1,3.44,3.44,0,0,0,1.85-.18,3,3,0,0,0,1.6-1.33,3.37,3.37,0,0,0,.31-2.25Z"/><polygon class="cls-2" points="171.66 216.79 166.73 207.52 167.96 206.87 172.88 216.14 171.66 216.79 171.66 216.79"/><path class="cls-2" d="M172,210.73a5.67,5.67,0,0,1-1-4.21,4.79,4.79,0,0,1,2.3-3.17,5,5,0,0,1,2.6-.8,4.62,4.62,0,0,1,2.54.7,6.43,6.43,0,0,1,2,2.07,6.06,6.06,0,0,1,1,2.76,4.38,4.38,0,0,1-.54,2.58,5.18,5.18,0,0,1-1.82,1.9,5,5,0,0,1-2.63.79,4.57,4.57,0,0,1-2.54-.72,6,6,0,0,1-1.9-1.9Zm1.23-.74a4.22,4.22,0,0,0,2.45,2,3.4,3.4,0,0,0,2.75-.43,3.35,3.35,0,0,0,1.61-2.3,4.44,4.44,0,0,0-.79-3.19,5.26,5.26,0,0,0-1.56-1.67,3.36,3.36,0,0,0-1.86-.59,3.64,3.64,0,0,0-3.49,2.75,4.48,4.48,0,0,0,.89,3.43Z"/><polygon class="cls-2" points="184.54 208.63 177.38 200.94 178.42 199.97 188.09 202.25 182.47 196.22 183.44 195.31 190.61 203 189.56 203.97 179.89 201.68 185.52 207.72 184.54 208.63 184.54 208.63"/><path class="cls-2" d="M71.46,184.3,136.84,74.65l1.7-2.85,1.69,2.85,65.82,110.44,1.79,3-3.5,0-131.19-.79-3.46,0,1.77-3ZM138.54,79.52,76.62,183.36l124.24.75L138.54,79.52Z"/><path class="cls-2" d="M118.74,179.65l0,2-4-.05,0-2,.22-14.88h-5.64v-3.95h5.69l.45-31.3V129l.24-.42s7.12-13.16,18.06-.78l.5.56v.76l-.42,51.57v1h-4v-16.9H119l-.22,14.93Zm.71-49.58-.44,30.7H130.1l.25-30.94c-6-6.24-9.93-1.24-10.9.24Z"/><path class="cls-2" d="M148.29,179.65l0,2-3.95-.06,0-2,.24-14.86h-5.67v-4h5.73l.49-31.3V129l.23-.43s7-13.17,18-.79l.5.56v.75l-.34,51.38v1.17h-4V164.73h-11l-.24,14.92Zm.78-49.6-.48,30.71h11.1l.21-30.93c-6-6.22-9.87-1.26-10.83.22Z"/><path class="cls-3" d="M212.49,81.64h0a7.6,7.6,0,0,1,7.63,7.61h0a7.45,7.45,0,0,1-2.25,5.35,7.63,7.63,0,0,1-5.38,2.19h0a7.65,7.65,0,0,1-5.39-2.19,7.5,7.5,0,0,1-2.24-5.35h0a7.58,7.58,0,0,1,7.62-7.61h0Zm0,1h0a6.61,6.61,0,0,0-6.64,6.63h0a6.49,6.49,0,0,0,1.95,4.64,6.68,6.68,0,0,0,4.7,1.92h0a6.64,6.64,0,0,0,4.69-1.92,6.49,6.49,0,0,0,1.95-4.64h0a6.62,6.62,0,0,0-6.64-6.63Z"/><path class="cls-3" d="M209.78,93.39v-8.3H213a3.7,3.7,0,0,1,1.46.22,1.74,1.74,0,0,1,.8.79,2.64,2.64,0,0,1,.29,1.25,2.27,2.27,0,0,1-.49,1.49,2.34,2.34,0,0,1-1.52.77,2.34,2.34,0,0,1,.57.42,5.47,5.47,0,0,1,.79,1.1l1.24,2.26H214.9l-1-1.73c-.28-.49-.5-.88-.68-1.14a2.13,2.13,0,0,0-.49-.55,1.39,1.39,0,0,0-.43-.23,3.25,3.25,0,0,0-.53,0h-1.1v3.68Zm.94-4.64h2a2.74,2.74,0,0,0,1-.15,1.18,1.18,0,0,0,.56-.5,1.61,1.61,0,0,0,.19-.75,1.34,1.34,0,0,0-.37-1A1.56,1.56,0,0,0,213,86h-2.27v2.74Z"/></svg>